# xmcd CD database file
#
# Track frame offsets:
#	150
#	16832
#	77554
#	113126
#	133395
#	182941
#	216549
#	245917
#
# Disc length: 3768 seconds
#
# Revision: 0
# Processed by: cddbd v1.5.2PL0 Copyright (c) Steve Scherf et al.
# Submitted via: CDex 1.51
#
DISCID=760eb608
DTITLE=John Coltrane - Best of (3cd) [CD3]
DYEAR=1900
DGENRE=Jazz
TTITLE0=Just for the Love
TTITLE1=Sonny's Crib
TTITLE2=Monk's Mood
TTITLE3=Epistrophy
TTITLE4=Smoke Stack
TTITLE5=Come Rain or Come Shine
TTITLE6=Nita
TTITLE7=Ball Bearing
EXTD=
EXTT0=
EXTT1=
EXTT2=
EXTT3=
EXTT4=
EXTT5=
EXTT6=
EXTT7=
PLAYORDER=
